# xmcd CD database file
#
# Track frame offsets:
#	150
#	15931
#	30814
#	42363
#	56912
#	70096
#	85127
#	103653
#	117318
#	134673
#	151327
#	161309
#
# Disc length: 2453 seconds
#
# Revision: 0
# Processed by: cddbd v1.5.2PL0 Copyright (c) Steve Scherf et al.
# Submitted via: CDex 1.51
#
DISCID=8f09930c
DTITLE=Tottes Turbo - Fifty Fans Can't Be Wrong
DYEAR=2011
DGENRE=Blues
TTITLE0=Little Sister
TTITLE1=Lodi
TTITLE2=That's All Right, Mama
TTITLE3=Early In The Morning
TTITLE4=Green River
TTITLE5=River Deep Mountain High
TTITLE6=Peaceful Easy Feeling
TTITLE7=The Tennessee Waltz
TTITLE8=Got You On My Mind
TTITLE9=Summer In The City
TTITLE10=Mercury Blues
TTITLE11=Same Old Blues
EXTD=YEAR: 2011
EXTT0=
EXTT1=
EXTT2=
EXTT3=
EXTT4=
EXTT5=
EXTT6=
EXTT7=
EXTT8=
EXTT9=
EXTT10=
EXTT11=
PLAYORDER=
